<svg width="61" height="94" viewBox="0 0 61 94" fill="none" xmlns="http://www.w3.org/2000/svg">
<g id="Icon">
<path id="Vector" d="M46.7429 0.0302734H14.0304C6.62777 0.0302734 0.603271 6.0589 0.603271 13.4574V80.5425C0.603271 87.9452 6.6319 93.9697 14.0304 93.9697H46.7429C54.1455 93.9697 60.17 87.941 60.17 80.5425V13.4574C60.17 6.05477 54.1414 0.0302734 46.7429 0.0302734ZM55.5867 80.5552C55.5867 85.438 51.6214 89.399 46.7429 89.399H14.0304C9.14752 89.399 5.18653 85.4337 5.18653 80.5552V13.4574C5.18653 8.57452 9.15187 4.61353 14.0304 4.61353H14.6614C14.4645 4.95815 14.3392 5.3341 14.3392 5.75928C14.3392 7.02145 15.3686 8.05079 16.6307 8.05079H44.1289C45.391 8.05079 46.4204 7.0214 46.4204 5.75928C46.4204 5.3341 46.2951 4.95815 46.0981 4.61353H46.7292C51.6121 4.61353 55.5731 8.57887 55.5731 13.4574V80.5425L55.5867 80.5552Z" fill="#0D6EFD"/>
<path id="Vector_2" d="M40.6921 79.6602H20.0685C18.8063 79.6602 17.777 80.6895 17.777 81.9517C17.777 83.2138 18.8064 84.2432 20.0685 84.2432H40.6921C41.9543 84.2432 42.9836 83.2138 42.9836 81.9517C42.9836 80.6895 41.9542 79.6602 40.6921 79.6602Z" fill="#0D6EFD"/>
</g>
</svg>
