<svg width="22" height="25" viewBox="0 0 22 25" fill="none" xmlns="http://www.w3.org/2000/svg">
<g id="vuesax/outline/calendar">
<g id="Vector">
<path d="M6.66667 5.72925C6.2225 5.72925 5.85417 5.36091 5.85417 4.91675V1.66675C5.85417 1.22258 6.2225 0.854248 6.66667 0.854248C7.11083 0.854248 7.47917 1.22258 7.47917 1.66675V4.91675C7.47917 5.36091 7.11083 5.72925 6.66667 5.72925Z" fill="#222222"/>
<path d="M15.3333 5.72925C14.8892 5.72925 14.5208 5.36091 14.5208 4.91675V1.66675C14.5208 1.22258 14.8892 0.854248 15.3333 0.854248C15.7775 0.854248 16.1458 1.22258 16.1458 1.66675V4.91675C16.1458 5.36091 15.7775 5.72925 15.3333 5.72925Z" fill="#222222"/>
<path d="M7.20833 15.2084C7.0675 15.2084 6.92667 15.1759 6.79667 15.1218C6.65583 15.0676 6.5475 14.9917 6.43917 14.8942C6.24417 14.6884 6.125 14.4176 6.125 14.1251C6.125 13.9843 6.1575 13.8434 6.21167 13.7134C6.26584 13.5834 6.34167 13.4643 6.43917 13.3559C6.5475 13.2584 6.65583 13.1826 6.79667 13.1284C7.18667 12.9659 7.67417 13.0526 7.9775 13.3559C8.1725 13.5618 8.29167 13.8434 8.29167 14.1251C8.29167 14.1901 8.28083 14.2659 8.27 14.3418C8.25917 14.4068 8.2375 14.4718 8.205 14.5368C8.18333 14.6018 8.15084 14.6668 8.1075 14.7318C8.075 14.7859 8.02083 14.8401 7.9775 14.8942C7.77167 15.0892 7.49 15.2084 7.20833 15.2084Z" fill="#222222"/>
<path d="M11 15.2084C10.8592 15.2084 10.7183 15.1759 10.5883 15.1218C10.4475 15.0676 10.3392 14.9917 10.2308 14.8942C10.0358 14.6884 9.91667 14.4176 9.91667 14.1251C9.91667 13.9842 9.94917 13.8434 10.0033 13.7134C10.0575 13.5834 10.1333 13.4643 10.2308 13.3559C10.3392 13.2584 10.4475 13.1826 10.5883 13.1284C10.9783 12.9551 11.4658 13.0526 11.7692 13.3559C11.9642 13.5618 12.0833 13.8434 12.0833 14.1251C12.0833 14.1901 12.0725 14.2659 12.0617 14.3418C12.0508 14.4068 12.0292 14.4717 11.9967 14.5367C11.975 14.6017 11.9425 14.6667 11.8992 14.7317C11.8667 14.7859 11.8125 14.8401 11.7692 14.8942C11.5633 15.0892 11.2817 15.2084 11 15.2084Z" fill="#222222"/>
<path d="M14.7917 15.2084C14.6508 15.2084 14.51 15.1759 14.38 15.1218C14.2392 15.0676 14.1308 14.9917 14.0225 14.8942C13.9792 14.8401 13.9358 14.7859 13.8925 14.7317C13.8492 14.6667 13.8167 14.6017 13.795 14.5367C13.7625 14.4717 13.7408 14.4068 13.73 14.3418C13.7192 14.2659 13.7083 14.1901 13.7083 14.1251C13.7083 13.8434 13.8275 13.5618 14.0225 13.3559C14.1308 13.2584 14.2392 13.1826 14.38 13.1284C14.7808 12.9551 15.2575 13.0526 15.5608 13.3559C15.7558 13.5618 15.875 13.8434 15.875 14.1251C15.875 14.1901 15.8642 14.2659 15.8533 14.3418C15.8425 14.4068 15.8208 14.4717 15.7883 14.5367C15.7667 14.6017 15.7342 14.6667 15.6908 14.7317C15.6583 14.7859 15.6042 14.8401 15.5608 14.8942C15.355 15.0892 15.0733 15.2084 14.7917 15.2084Z" fill="#222222"/>
<path d="M7.20833 19.0001C7.0675 19.0001 6.92667 18.9676 6.79667 18.9134C6.66667 18.8593 6.5475 18.7834 6.43917 18.6859C6.24417 18.4801 6.125 18.1984 6.125 17.9168C6.125 17.7759 6.1575 17.6351 6.21167 17.5051C6.26584 17.3642 6.34167 17.2451 6.43917 17.1476C6.84 16.7468 7.57667 16.7468 7.9775 17.1476C8.1725 17.3534 8.29167 17.6351 8.29167 17.9168C8.29167 18.1984 8.1725 18.4801 7.9775 18.6859C7.77167 18.8809 7.49 19.0001 7.20833 19.0001Z" fill="#222222"/>
<path d="M11 19.0001C10.7183 19.0001 10.4367 18.8809 10.2308 18.6859C10.0358 18.4801 9.91667 18.1984 9.91667 17.9168C9.91667 17.7759 9.94917 17.6351 10.0033 17.5051C10.0575 17.3642 10.1333 17.2451 10.2308 17.1476C10.6317 16.7468 11.3683 16.7468 11.7692 17.1476C11.8667 17.2451 11.9425 17.3642 11.9967 17.5051C12.0508 17.6351 12.0833 17.7759 12.0833 17.9168C12.0833 18.1984 11.9642 18.4801 11.7692 18.6859C11.5633 18.8809 11.2817 19.0001 11 19.0001Z" fill="#222222"/>
<path d="M14.7917 19.0001C14.51 19.0001 14.2283 18.8809 14.0225 18.6859C13.925 18.5884 13.8492 18.4693 13.795 18.3285C13.7408 18.1985 13.7083 18.0576 13.7083 17.9168C13.7083 17.776 13.7408 17.6351 13.795 17.5051C13.8492 17.3643 13.925 17.2451 14.0225 17.1476C14.2717 16.8985 14.6508 16.7793 14.9975 16.8551C15.0733 16.8659 15.1383 16.8876 15.2033 16.9201C15.2683 16.9418 15.3333 16.9743 15.3983 17.0176C15.4525 17.0501 15.5067 17.1043 15.5608 17.1476C15.7558 17.3535 15.875 17.6351 15.875 17.9168C15.875 18.1985 15.7558 18.4801 15.5608 18.6859C15.355 18.8809 15.0733 19.0001 14.7917 19.0001Z" fill="#222222"/>
<path d="M20.2083 10.16H1.79167C1.3475 10.16 0.979167 9.79171 0.979167 9.34754C0.979167 8.90338 1.3475 8.53504 1.79167 8.53504H20.2083C20.6525 8.53504 21.0208 8.90338 21.0208 9.34754C21.0208 9.79171 20.6525 10.16 20.2083 10.16Z" fill="#222222"/>
<path d="M15.3333 24.1459H6.66667C2.7125 24.1459 0.4375 21.8709 0.4375 17.9167V8.70841C0.4375 4.75425 2.7125 2.47925 6.66667 2.47925H15.3333C19.2875 2.47925 21.5625 4.75425 21.5625 8.70841V17.9167C21.5625 21.8709 19.2875 24.1459 15.3333 24.1459ZM6.66667 4.10425C3.56833 4.10425 2.0625 5.61008 2.0625 8.70841V17.9167C2.0625 21.0151 3.56833 22.5209 6.66667 22.5209H15.3333C18.4317 22.5209 19.9375 21.0151 19.9375 17.9167V8.70841C19.9375 5.61008 18.4317 4.10425 15.3333 4.10425H6.66667Z" fill="#222222"/>
</g>
</g>
</svg>
